<svg xmlns="http://www.w3.org/2000/svg" xmlns:xlink="http://www.w3.org/1999/xlink" viewBox="0 0 561.62 176.35"><defs><style>.cls-1{fill:#0472b7;}.cls-2{clip-path:url(#clip-path);}</style><clipPath id="clip-path"><path class="cls-1" d="M35.82,69,.58,51.66V27.86l54.82,32V79.14L.58,111.69V87.89Zm24.55,25H125.1v18.39H60.37Z"/></clipPath></defs><title>Risorsa 5</title><g id="Livello_2" data-name="Livello 2"><g id="Livello_1-2" data-name="Livello 1"><path class="cls-1" d="M35.82,69,.58,51.66V27.86l54.82,32V79.14L.58,111.69V87.89Zm24.55,25H125.1v18.39H60.37Z"/><g class="cls-2"><rect class="cls-1" y="0.36" width="561.62" height="115.05"/></g><path class="cls-1" d="M203.64,0V111.86H182.39V108.5q-11.19,5.27-19.34,5.27-17.42,0-24.28-10.06T131.9,71.83q0-21.81,8.22-31.8T165,30a88.55,88.55,0,0,1,14.22,1.6l3,.64V0ZM180,92.68l2.24-.48v-42a89,89,0,0,0-15.66-1.59q-12.94,0-12.94,23,0,12.47,2.87,17.74T166,94.6A55.35,55.35,0,0,0,180,92.68Z"/><path class="cls-1" d="M223.46,21.73V0h21.41V21.73Zm0,90.13V32h21.41v79.9Z"/><path class="cls-1" d="M265.64,111.86V0h21.41V111.86Z"/><path class="cls-1" d="M307.82,21.73V0h21.42V21.73Zm0,90.13V32h21.42v79.9Z"/><path class="cls-1" d="M396.19,32H417.6v79.9H396.35v-4.48q-11.5,6.39-20,6.39-16.62,0-22.38-9.19t-5.75-30.76V32h21.41V74.14q0,11.83,1.92,16.14t9.27,4.32a39,39,0,0,0,13.27-2.24l2.07-.64Z"/><path class="cls-1" d="M458.83,111.86H437.42V32h21.25v4.47q11-6.39,18.85-6.39,12.94,0,20,7.51Q512.2,30,524.34,30q15.82,0,22,9.19t6.16,29.32v43.31H531.06V69.19q0-10.23-2.24-15.1t-9-4.87a44.12,44.12,0,0,0-12.46,2.23l-2.4.8q.63,12,.64,18.22v41.39H484.23V70.79q0-11.82-2.07-16.7t-9.11-4.87a35.33,35.33,0,0,0-12.3,2.23l-1.92.64Z"/><path class="cls-1" d="M169,134.64h20.11l-.71,3.06h-8.37l-6.48,28.08h-3.42l6.48-28.08h-8.33Z"/><path class="cls-1" d="M198.19,162.27l-.27,2.66a29.84,29.84,0,0,1-8,1.3c-4.32,0-6.8-2.25-6.8-6.84,0-7.74,3.69-16.56,12.11-16.56,4,0,6.66,1.62,6.66,5.49,0,5.53-4.19,7.2-12.6,7.2h-2.3a15.29,15.29,0,0,0-.49,3.65c0,2.69,1.75,4.09,4.32,4.09A37.88,37.88,0,0,0,198.19,162.27Zm-8.32-9.4c5.89,0,8.64-1,8.64-4.5,0-2-1.26-2.7-3.47-2.7-4.09,0-6.39,2.88-7.65,7.2Z"/><path class="cls-1" d="M221.37,143.69l-.86,2.61a34,34,0,0,0-4.86-.54c-5.71,0-8.28,6.7-8.28,13,0,2.92,1.26,4.54,4.64,4.54a35,35,0,0,0,5-.67l-.23,2.65a23.71,23.71,0,0,1-5.94.95c-4.59,0-7-2.48-7-6.84,0-8.64,3.78-16.56,11.83-16.56A24.83,24.83,0,0,1,221.37,143.69Z"/><path class="cls-1" d="M221,165.78l7.47-32.31h3.38l-3.2,13.77s3.46-4.41,7.29-4.41c3.6,0,5.31,2.3,5.31,5.67a28.56,28.56,0,0,1-.94,5.94l-2.62,11.34h-3.33l2.62-11.2a31.12,31.12,0,0,0,.8-5.4c0-2.12-.85-3.38-3-3.38-3,0-7,5.09-7,5.09l-3.42,14.89Z"/><path class="cls-1" d="M243.42,165.78l5.17-22.5h3.29l-.82,3.92s3.42-4.37,7.25-4.37c3.6,0,5.31,2.3,5.31,5.67a27.21,27.21,0,0,1-.9,5.85l-2.66,11.43h-3.33l2.62-11.2a27.76,27.76,0,0,0,.85-5.4c0-2.12-.9-3.38-3.06-3.38-3,0-6.93,5-6.93,5l-3.46,14.94Z"/><path class="cls-1" d="M286.07,150.48c0,8.24-4.27,15.75-11.43,15.75-5,0-7.69-2.21-7.69-7.38,0-8.37,4.59-16,11.34-16C283.33,142.83,286.07,145.3,286.07,150.48Zm-3.37,0c0-2.78-1.4-4.67-4.41-4.67-4.82,0-8,6.38-8,13.13,0,2.84,1.44,4.41,4.32,4.41C279.59,163.3,282.7,157.18,282.7,150.43Z"/><path class="cls-1" d="M295.7,133.47H299l-7.42,32.31h-3.38Z"/><path class="cls-1" d="M318,150.48c0,8.24-4.28,15.75-11.43,15.75-5,0-7.7-2.21-7.7-7.38,0-8.37,4.59-16,11.34-16C315.23,142.83,318,145.3,318,150.48Zm-3.38,0c0-2.78-1.39-4.67-4.41-4.67-4.81,0-8,6.38-8,13.13,0,2.84,1.44,4.41,4.32,4.41C311.5,163.3,314.6,157.18,314.6,150.43Z"/><path class="cls-1" d="M317.8,170.46c0-3.42,3.33-5.53,5.94-6.89a2.53,2.53,0,0,1-.72-1.93c0-2,2.47-4.37,2.47-4.37-2-.94-3.1-2.65-3.1-5.39a8.94,8.94,0,0,1,9-9,14.12,14.12,0,0,1,4.32.72l6.66-.27-.67,2.88h-4a5.86,5.86,0,0,1,.77,3.1,9.08,9.08,0,0,1-9.5,8.87,11.19,11.19,0,0,1-1.48-.14s-1.4,1.81-1.4,3,1.08,1.3,4.19,1.71c4.54.58,6.79,1.88,6.79,5.35,0,4.45-4.23,8.32-11.25,8.32C320.9,176.35,317.8,174.24,317.8,170.46Zm7.69-5.72c-2,1-4.5,3-4.5,5s1.58,3.73,5,3.73c4.05,0,7.83-1.84,7.83-5.17,0-1.89-1.31-2.43-4.41-2.84A18.86,18.86,0,0,1,325.49,164.74Zm9.81-15.29c0-2.48-1.12-3.78-4.05-3.78-3.69,0-5.67,3.42-5.67,6.07,0,2.11,1,3.6,3.74,3.6A6,6,0,0,0,335.3,149.45Z"/><path class="cls-1" d="M346.19,143.28h3.38l-5.22,22.5H341Zm2-8.73h3.37l-.94,4h-3.42Z"/><path class="cls-1" d="M366.53,162.27l-.27,2.66a29.84,29.84,0,0,1-8.05,1.3c-4.32,0-6.8-2.25-6.8-6.84,0-7.74,3.69-16.56,12.11-16.56,4.05,0,6.66,1.62,6.66,5.49,0,5.53-4.19,7.2-12.6,7.2h-2.3a15.29,15.29,0,0,0-.49,3.65c0,2.69,1.75,4.09,4.32,4.09A37.88,37.88,0,0,0,366.53,162.27Zm-8.32-9.4c5.89,0,8.64-1,8.64-4.5,0-2-1.26-2.7-3.47-2.7-4.09,0-6.39,2.88-7.65,7.2Z"/><path class="cls-1" d="M389.26,146.39a62.16,62.16,0,0,0-7.16-.63c-3.15,0-5.08,2-5.08,4.36,0,1.48.85,2,4.14,2.84,4,1,6.16,1.8,6.16,5.08,0,5.53-4.36,8.19-9.81,8.19a30.1,30.1,0,0,1-7.11-1l.63-2.61a51.13,51.13,0,0,0,6.89.72c3.42,0,5.94-1.48,5.94-4.58,0-1.8-1.22-2.17-4.28-2.88-3.78-1-5.94-1.9-5.94-4.91,0-4.86,3.83-8.1,8.87-8.1a35.68,35.68,0,0,1,7.42.95Z"/><path class="cls-1" d="M404.47,165.78l-2.75,10H398.8l6.84-29.52h-2.57l.72-3h2.48l.49-1.93c1.4-6,3.33-8.33,7.65-8.33a15.58,15.58,0,0,1,3.78.63l-.63,2.61a23,23,0,0,0-3.24-.31c-2.38,0-3.28,1.8-4.23,5.44l-.45,1.89h6l-.72,2.93H409Z"/><path class="cls-1" d="M434,150.48c0,8.24-4.27,15.75-11.43,15.75-5,0-7.69-2.21-7.69-7.38,0-8.37,4.59-16,11.34-16C431.29,142.83,434,145.3,434,150.48Zm-3.37,0c0-2.78-1.4-4.67-4.41-4.67-4.82,0-8,6.38-8,13.13,0,2.84,1.44,4.41,4.32,4.41C427.55,163.3,430.66,157.18,430.66,150.43Z"/><path class="cls-1" d="M441.23,143.28h3.33l-.81,3.33a25.67,25.67,0,0,1,8.15-3.82l-.9,3.46a48.45,48.45,0,0,0-7.88,3.38l-3.73,16.15H436Z"/><path class="cls-1" d="M467.87,134.64h3.42l-7.2,31.14h-3.42Z"/><path class="cls-1" d="M486.86,165.78h-3.24l.86-4s-3.42,4.46-7.43,4.46c-3.74,0-5.67-2.21-5.67-6.57,0-7.61,4.05-16.83,11.25-16.83a31.15,31.15,0,0,1,6,.81L491,133.47h3.37ZM488,146.43a29.41,29.41,0,0,0-5.4-.67c-5.08,0-7.78,8.28-7.78,13.85,0,2.34,1,3.69,3.24,3.69,3,0,7.24-5.31,7.24-5.31Z"/><path class="cls-1" d="M509.09,162.27l-.27,2.66a29.94,29.94,0,0,1-8.05,1.3c-4.33,0-6.8-2.25-6.8-6.84,0-7.74,3.69-16.56,12.1-16.56,4.05,0,6.66,1.62,6.66,5.49,0,5.53-4.18,7.2-12.59,7.2h-2.3a14.8,14.8,0,0,0-.49,3.65c0,2.69,1.75,4.09,4.31,4.09A38,38,0,0,0,509.09,162.27Zm-8.32-9.4c5.89,0,8.63-1,8.63-4.5,0-2-1.26-2.7-3.46-2.7-4.09,0-6.39,2.88-7.65,7.2Z"/><path class="cls-1" d="M514.67,159.52c0-7,3.73-16.69,11.34-16.69a79,79,0,0,1,9.22,1.13l-3.42,14.62c-.67,2.83-1.25,7.11-1.25,7.11l-3.29.13s.63-3.87.81-4.81c0,0-3.73,5.22-7.65,5.22S514.67,163.66,514.67,159.52Zm3.47,0c0,2.39.8,3.78,3.33,3.78,2.83,0,7.28-5.89,7.28-5.89l2.57-11a34.06,34.06,0,0,0-5.26-.63C520.84,145.76,518.14,153.94,518.14,159.52Z"/><path class="cls-1" d="M554.31,146.39a61.89,61.89,0,0,0-7.15-.63c-3.15,0-5.09,2-5.09,4.36,0,1.48.86,2,4.15,2.84,4,1,6.16,1.8,6.16,5.08,0,5.53-4.36,8.19-9.81,8.19a30,30,0,0,1-7.11-1l.63-2.61a51.13,51.13,0,0,0,6.89.72c3.41,0,5.93-1.48,5.93-4.58,0-1.8-1.21-2.17-4.27-2.88-3.78-1-5.94-1.9-5.94-4.91,0-4.86,3.82-8.1,8.86-8.1a35.84,35.84,0,0,1,7.43.95Z"/></g></g></svg>