<svg width="200" height="200" viewBox="0 0 7147 2273" fill="none" xmlns="http://www.w3.org/2000/svg">
<path d="M454.702 889.351L0.476074 665.853V359.091L707.078 771.544V1020.05L0.476074 1439.59V1132.83L454.702 889.351ZM771.139 1211.58H1605.48V1448.61H771.139V1211.58Z" fill="white"/>
<mask id="mask0_40_502" style="mask-type:luminance" maskUnits="userSpaceOnUse" x="0" y="359" width="1606" height="1090">
<path d="M454.702 889.351L0.476074 665.853V359.091L707.078 771.544V1020.05L0.476074 1439.59V1132.83L454.702 889.351ZM771.139 1211.58H1605.48V1448.61H771.139V1211.58Z" fill="white"/>
</mask>
<g mask="url(#mask0_40_502)">
<path d="M7232 4.64014H-7V1487.54H7232V4.64014Z" fill="white"/>
</g>
<path d="M2617.82 0V1441.78H2343.92V1398.47C2247.76 1443.76 2164.67 1466.4 2094.63 1466.4C1944.94 1466.4 1840.62 1423.18 1781.68 1336.73C1722.73 1250.29 1693.21 1113.32 1693.12 925.827C1693.12 738.419 1728.44 601.794 1799.08 515.952C1869.71 430.111 1976.61 387.018 2119.77 386.674C2181.32 388.593 2242.62 395.489 2303.06 407.297L2341.72 415.546V0H2617.82ZM2313.11 1194.57L2341.98 1188.38V647.035C2275.44 634.256 2207.89 627.398 2140.13 626.541C2028.94 626.541 1973.34 725.358 1973.34 922.991C1973.34 1030.14 1985.67 1106.36 2010.34 1151.64C2035 1196.93 2075.77 1219.48 2132.66 1219.31C2193.62 1218.81 2254.26 1210.49 2313.11 1194.57Z" fill="white"/>
<path d="M2873.29 280.081V0H3149.25V280.081H2873.29ZM2873.29 1441.78V412.452H3149.25V1442.29L2873.29 1441.78Z" fill="white"/>
<path d="M3416.97 1441.78V0H3692.93V1441.78H3416.97Z" fill="white"/>
<path d="M3960.65 280.081V0H4236.74V280.081H3960.65ZM3960.65 1441.78V412.452H4236.74V1442.29L3960.65 1441.78Z" fill="white"/>
<path d="M5099.69 412.453H5375.65V1442.29H5101.75V1384.55C5002.93 1439.46 4917 1466.91 4843.96 1466.91C4701.15 1466.91 4604.99 1427.43 4555.5 1348.46C4506 1269.49 4481.3 1137.34 4481.38 951.992V412.453H4757.35V955.601C4757.35 1057.25 4765.59 1126.6 4782.09 1163.63C4798.59 1200.67 4838.42 1219.23 4901.58 1219.31C4959.84 1219.67 5017.71 1209.9 5072.62 1190.44L5099.3 1182.19L5099.69 412.453Z" fill="white"/>
<path d="M5907.09 1441.78H5631.12V412.452H5905.03V470.067C5999.55 415.159 6080.54 387.705 6147.99 387.705C6259.19 387.705 6345.12 419.971 6405.78 484.503C6531.93 419.284 6647.16 386.674 6751.48 386.674C6887.42 386.674 6981.94 426.158 7035.05 505.125C7088.15 584.093 7114.62 710.063 7114.45 883.035V1441.26H6838.1V891.8C6838.1 803.896 6828.47 739.02 6809.23 697.174C6789.98 655.327 6751.31 634.404 6693.22 634.404C6638.58 636.215 6584.49 645.896 6532.62 663.146L6501.68 673.458C6507.1 776.571 6509.84 854.851 6509.93 908.298V1441.78H6234.48V912.422C6234.48 810.856 6225.59 739.106 6207.8 697.174C6190.01 655.241 6150.87 634.318 6090.38 634.404C6036.24 634.485 5982.56 644.218 5931.84 663.146L5907.09 671.395V1441.78Z" fill="white"/>
<path d="M2171.33 1735.39H2430.66L2421.38 1774.83H2313.5L2229.97 2136.76H2185.89L2269.41 1774.83H2162.04L2171.33 1735.39Z" fill="white"/>
<path d="M2547.57 2091.52L2544.09 2125.81C2510.64 2136.05 2475.95 2141.69 2440.97 2142.56C2385.29 2142.56 2353.33 2113.56 2353.33 2054.4C2353.33 1954.64 2400.89 1840.96 2509.42 1840.96C2560.98 1840.96 2595.26 1861.84 2595.26 1911.72C2595.26 1982.99 2541.25 2004.52 2432.85 2004.52H2403.21C2399.21 2019.89 2397.09 2035.69 2396.89 2051.56C2396.89 2086.24 2419.45 2104.28 2452.57 2104.28C2484.58 2103.15 2516.4 2098.88 2547.57 2091.52ZM2440.33 1970.36C2516.25 1970.36 2551.69 1957.47 2551.69 1912.36C2551.69 1886.58 2535.45 1877.56 2506.97 1877.56C2454.25 1877.56 2424.6 1914.68 2408.36 1970.36H2440.33Z" fill="white"/>
<path d="M2846.35 1852.04L2835.26 1885.68C2814.58 1881.86 2793.64 1879.53 2772.62 1878.72C2699.02 1878.72 2665.9 1965.08 2665.9 2046.28C2665.9 2083.92 2682.14 2104.8 2725.7 2104.8C2747.36 2103.47 2768.9 2100.59 2790.15 2096.16L2787.19 2130.32C2762.29 2137.63 2736.56 2141.75 2710.62 2142.56C2651.46 2142.56 2620.4 2110.6 2620.4 2054.4C2620.4 1943.04 2669.12 1840.96 2772.88 1840.96C2797.72 1841.79 2822.37 1845.51 2846.35 1852.04Z" fill="white"/>
<path d="M2841.58 2136.76L2937.86 1720.31H2981.43L2940.18 1897.8C2940.18 1897.8 2984.78 1840.96 3034.15 1840.96C3080.55 1840.96 3102.59 1870.6 3102.59 1914.04C3101.26 1939.91 3097.2 1965.58 3090.48 1990.6L3056.7 2136.76H3013.78L3047.55 1992.4C3053.02 1969.55 3056.47 1946.26 3057.86 1922.8C3057.86 1895.48 3046.91 1879.24 3019.2 1879.24C2980.53 1879.24 2928.97 1944.84 2928.97 1944.84L2884.89 2136.76H2841.58Z" fill="white"/>
<path d="M3130.56 2136.76L3197.2 1846.76H3239.61L3229.17 1897.28C3229.17 1897.28 3273.12 1840.96 3322.49 1840.96C3368.89 1840.96 3390.93 1870.6 3390.93 1914.04C3389.82 1939.52 3385.93 1964.8 3379.33 1989.44L3345.17 2136.76H3302.12L3335.89 1992.4C3341.82 1969.62 3345.49 1946.31 3346.85 1922.8C3346.85 1895.48 3335.25 1879.24 3307.41 1879.24C3268.74 1879.24 3218.08 1943.68 3218.08 1943.68L3173.48 2136.25L3130.56 2136.76Z" fill="white"/>
<path d="M3680.3 1939.56C3680.3 2045.76 3625.26 2142.56 3532.97 2142.56C3468.52 2142.56 3433.85 2114.08 3433.85 2047.44C3433.85 1939.56 3493.01 1841.21 3580.02 1841.21C3644.98 1840.96 3680.3 1872.79 3680.3 1939.56ZM3636.86 1939.56C3636.86 1903.73 3618.82 1879.37 3580.02 1879.37C3517.89 1879.37 3476.9 1961.6 3476.9 2048.6C3476.9 2085.21 3495.46 2105.44 3532.58 2105.44C3596.77 2104.8 3636.86 2025.92 3636.86 1938.91V1939.56Z" fill="white"/>
<path d="M3804.43 1720.31H3846.96L3751.32 2136.76H3707.75L3804.43 1720.31Z" fill="white"/>
<path d="M4091.86 1939.56C4091.86 2045.76 4036.69 2142.56 3944.53 2142.56C3880.09 2142.56 3845.29 2114.08 3845.29 2047.44C3845.29 1939.56 3904.45 1841.21 3991.45 1841.21C4056.16 1840.96 4091.86 1872.79 4091.86 1939.56ZM4048.29 1939.56C4048.29 1903.73 4030.38 1879.37 3991.45 1879.37C3929.45 1879.37 3888.34 1961.6 3888.34 2048.6C3888.34 2085.21 3906.9 2105.44 3944.02 2105.44C4008.08 2104.8 4048.04 2025.92 4048.04 1938.91L4048.29 1939.56Z" fill="white"/>
<path d="M4089.28 2197.08C4089.28 2153 4132.21 2125.81 4165.85 2108.28C4162.64 2105.01 4160.16 2101.11 4158.56 2096.83C4156.96 2092.54 4156.28 2087.97 4156.57 2083.4C4156.57 2057.62 4188.4 2027.08 4188.4 2027.08C4162.62 2014.96 4148.45 1992.92 4148.45 1957.6C4148.34 1942.34 4151.27 1927.21 4157.07 1913.09C4162.86 1898.97 4171.4 1886.14 4182.19 1875.35C4192.99 1864.56 4205.82 1856.01 4219.94 1850.22C4234.06 1844.43 4249.19 1841.5 4264.45 1841.6C4283.38 1841.78 4302.17 1844.91 4320.13 1850.88L4405.98 1847.4L4397.34 1884.52H4345.78C4352.73 1896.66 4356.16 1910.5 4355.71 1924.48C4355.37 1940.08 4351.9 1955.46 4345.52 1969.71C4339.15 1983.96 4329.98 1996.79 4318.57 2007.44C4307.16 2018.09 4293.74 2026.36 4279.09 2031.74C4264.43 2037.13 4248.85 2039.53 4233.26 2038.8C4226.87 2038.63 4220.49 2038.02 4214.18 2037C4214.18 2037 4196.14 2060.33 4196.14 2075.67C4196.14 2091.01 4210.06 2092.42 4250.14 2097.71C4308.66 2105.18 4337.66 2121.94 4337.66 2166.66C4337.66 2224.02 4283.14 2273.9 4192.66 2273.9C4129.24 2273 4089.28 2245.8 4089.28 2197.08ZM4188.4 2123.36C4162.62 2136.25 4130.4 2162.02 4130.4 2187.8C4130.4 2213.58 4150.77 2235.88 4194.85 2235.88C4247.05 2235.88 4295.77 2212.16 4295.77 2169.24C4295.77 2144.88 4278.89 2137.92 4238.93 2132.64C4221.81 2131.34 4204.87 2128.23 4188.4 2123.36ZM4314.85 1926.28C4314.85 1894.32 4300.41 1877.56 4262.65 1877.56C4215.08 1877.56 4189.56 1921.64 4189.56 1955.8C4189.56 1982.99 4202.45 2002.2 4237.77 2002.2C4257.99 2002.14 4277.39 1994.15 4291.79 1979.96C4306.2 1965.77 4314.48 1946.5 4314.85 1926.28Z" fill="white"/>
<path d="M4455.22 1846.76H4498.78L4431.5 2136.76H4388.32L4455.22 1846.76ZM4480.99 1734.23H4524.43L4512.32 1785.79H4468.23L4480.99 1734.23Z" fill="white"/>
<path d="M4717.39 2091.52L4713.91 2125.81C4680.25 2136.11 4645.34 2141.75 4610.15 2142.56C4554.46 2142.56 4522.5 2113.56 4522.5 2054.4C4522.5 1954.64 4570.06 1840.96 4678.59 1840.96C4730.79 1840.96 4764.43 1861.84 4764.43 1911.72C4764.43 1982.99 4710.43 2004.52 4602.03 2004.52H4572.38C4568.39 2019.89 4566.27 2035.69 4566.07 2051.56C4566.07 2086.24 4588.62 2104.28 4621.75 2104.28C4653.97 2103.2 4686.01 2098.92 4717.39 2091.52ZM4610.15 1970.36C4686.07 1970.36 4721.51 1957.47 4721.51 1912.36C4721.51 1886.58 4705.27 1877.56 4676.79 1877.56C4624.07 1877.56 4594.42 1914.68 4578.18 1970.36H4610.15Z" fill="white"/>
<path d="M5010.37 1886.84C4979.79 1882.36 4948.97 1879.65 4918.08 1878.72C4877.48 1878.72 4852.6 1904.5 4852.6 1934.92C4852.6 1953.99 4863.56 1960.7 4905.96 1971.52C4957.52 1984.41 4985.36 1994.72 4985.36 2037C4985.36 2108.28 4929.16 2142.56 4858.92 2142.56C4827.96 2141.94 4797.19 2137.61 4767.27 2129.67L4775.39 2096.03C4804.75 2101.13 4834.42 2104.23 4864.2 2105.31C4908.28 2105.31 4940.76 2086.24 4940.76 2046.28C4940.76 2023.08 4925.04 2018.31 4885.6 2009.16C4836.87 1996.27 4809.03 1984.67 4809.03 1945.87C4809.03 1883.23 4858.4 1841.47 4923.36 1841.47C4955.58 1842.19 4987.64 1846.29 5019 1853.72L5010.37 1886.84Z" fill="white"/>
<path d="M5206.42 2136.76L5170.97 2265.65H5133.33L5221.5 1885.17H5188.37L5197.65 1846.5H5229.62L5235.93 1821.62C5253.98 1744.29 5278.85 1714.26 5334.54 1714.26C5351.05 1714.95 5367.41 1717.67 5383.26 1722.38L5375.14 1756.02C5361.33 1753.7 5347.37 1752.36 5333.38 1752.02C5302.7 1752.02 5291.1 1775.22 5278.85 1822.14L5273.05 1846.5H5350.39L5341.11 1884.26H5264.81L5206.42 2136.76Z" fill="white"/>
<path d="M5587.04 1939.56C5587.04 2045.76 5532 2142.56 5439.72 2142.56C5375.27 2142.56 5340.6 2114.08 5340.6 2047.44C5340.6 1939.56 5399.76 1841.21 5486.76 1841.21C5552.11 1840.96 5587.04 1872.79 5587.04 1939.56ZM5543.61 1939.56C5543.61 1903.73 5525.56 1879.37 5486.76 1879.37C5424.64 1879.37 5383.65 1961.6 5383.65 2048.6C5383.65 2085.21 5402.21 2105.44 5439.33 2105.44C5503.91 2104.8 5543.99 2025.92 5543.99 1938.91L5543.61 1939.56Z" fill="white"/>
<path d="M5680.23 1846.76H5723.16L5712.72 1889.68C5744.56 1867.21 5780.12 1850.54 5817.77 1840.44L5806.16 1885.04C5771.09 1896.53 5737.1 1911.11 5704.6 1928.6L5656.52 2136.76H5612.82L5680.23 1846.76Z" fill="white"/>
<path d="M6023.61 1735.39H6067.69L5974.89 2136.76H5930.81L6023.61 1735.39Z" fill="white"/>
<path d="M6268.38 2136.76H6226.62L6237.7 2085.21C6237.7 2085.21 6193.62 2142.69 6141.93 2142.69C6093.86 2142.69 6068.85 2114.21 6068.85 2058.01C6068.85 1959.92 6121.05 1841.08 6213.86 1841.08C6239.92 1842.05 6265.82 1845.54 6291.2 1851.52L6321.74 1720.31H6365.18L6268.38 2136.76ZM6283.07 1887.36C6260.19 1882.33 6236.89 1879.44 6213.47 1878.72C6147.99 1878.72 6113.19 1985.44 6113.19 2057.24C6113.19 2087.4 6126.08 2104.8 6154.95 2104.8C6193.62 2104.8 6248.27 2036.36 6248.27 2036.36L6283.07 1887.36Z" fill="white"/>
<path d="M6554.91 2091.52L6551.43 2125.81C6517.78 2136.11 6482.86 2141.75 6447.67 2142.56C6391.86 2142.56 6360.03 2113.56 6360.03 2054.4C6360.03 1954.64 6407.59 1840.96 6515.99 1840.96C6568.19 1840.96 6601.83 1861.84 6601.83 1911.72C6601.83 1982.99 6547.95 2004.52 6439.55 2004.52H6409.91C6405.85 2019.88 6403.73 2035.68 6403.59 2051.56C6403.59 2086.24 6426.15 2104.28 6459.15 2104.28C6491.41 2103.19 6523.49 2098.92 6554.91 2091.52ZM6447.67 1970.36C6523.59 1970.36 6558.91 1957.47 6558.91 1912.36C6558.91 1886.58 6542.8 1877.56 6514.31 1877.56C6461.59 1877.56 6431.95 1914.68 6415.71 1970.36H6447.67Z" fill="white"/>
<path d="M6626.84 2056.08C6626.84 1965.85 6674.92 1840.96 6773.01 1840.96C6812.87 1843.48 6852.55 1848.34 6891.85 1855.52L6847.89 2043.96C6839.13 2080.44 6831.65 2135.6 6831.65 2135.6L6789.25 2137.28C6789.25 2137.28 6797.37 2087.4 6799.69 2075.28C6799.69 2075.28 6751.61 2142.56 6701.08 2142.56C6650.55 2142.56 6626.84 2109.44 6626.84 2056.08ZM6671.56 2056.08C6671.56 2086.88 6681.88 2104.8 6714.49 2104.8C6750.96 2104.8 6808.32 2028.88 6808.32 2028.88L6841.45 1887.1C6819.09 1882.64 6796.43 1879.92 6773.65 1878.98C6706.37 1878.72 6671.56 1984.15 6671.56 2056.08Z" fill="white"/>
<path d="M7137.91 1886.84C7107.33 1882.36 7076.51 1879.65 7045.62 1878.72C7005.02 1878.72 6980.01 1904.5 6980.01 1934.92C6980.01 1953.99 6991.09 1960.7 7033.5 1971.52C7085.06 1984.41 7112.9 1994.72 7112.9 2037C7112.9 2108.28 7056.7 2142.56 6986.45 2142.56C6955.5 2141.94 6924.73 2137.61 6894.81 2129.67L6902.93 2096.03C6932.29 2101.13 6961.96 2104.23 6991.74 2105.31C7035.82 2105.31 7068.17 2086.24 7068.17 2046.28C7068.17 2023.08 7052.58 2018.31 7013.14 2009.16C6964.41 1996.27 6936.57 1984.67 6936.57 1945.87C6936.57 1883.23 6985.81 1841.47 7050.9 1841.47C7083.12 1842.2 7115.18 1846.31 7146.54 1853.72L7137.91 1886.84Z" fill="white"/>
</svg>
